<?xml version="1.0" encoding="UTF-8"?>
<svg xmlns="http://www.w3.org/2000/svg" viewBox="0 0 240 140" width="240" height="140">
  <defs>
    <linearGradient id="hullGrad" x1="0" y1="0" x2="0" y2="1">
      <stop offset="0%" stop-color="#FFA370"/>
      <stop offset="50%" stop-color="#FF8C5A"/>
      <stop offset="100%" stop-color="#FF7B47"/>
    </linearGradient>
    <linearGradient id="rimGrad" x1="0" y1="0" x2="0" y2="1">
      <stop offset="0%" stop-color="#FFD2BD"/>
      <stop offset="100%" stop-color="#FFC1A6"/>
    </linearGradient>
    <linearGradient id="oarGrad" x1="0" y1="0" x2="1" y2="1">
      <stop offset="0%" stop-color="#C2663C"/>
      <stop offset="100%" stop-color="#A14F2C"/>
    </linearGradient>
    <filter id="softShadow" x="-20%" y="-20%" width="140%" height="160%">
      <feGaussianBlur in="SourceAlpha" stdDeviation="2"/>
      <feOffset dx="0" dy="3" result="offsetblur"/>
      <feComponentTransfer>
        <feFuncA type="linear" slope="0.25"/>
      </feComponentTransfer>
      <feMerge>
        <feMergeNode/>
        <feMergeNode in="SourceGraphic"/>
      </feMerge>
    </filter>
  </defs>

  <!-- subtle ground shadow -->
  <ellipse cx="120" cy="118" rx="78" ry="8" fill="#EADAD2" opacity="0.75"/>

  <!-- hull shadow under rim (light) -->
  <path d="M28 44c42 4 84 4 184 0l-11 10c-42 9-96 9-150 0L28 44z"
        fill="#FFE0D3" opacity="0.85"/>

  <!-- hull -->
  <path d="M40 54l20 56h120l20-56c-52 7-128 7-160 0z"
        fill="url(#hullGrad)" filter="url(#softShadow)"/>

  <!-- inner stripes of hull -->
  <path d="M47 72c48 7 98 7 146 0l-2 6c-46 7-96 7-142 0l-2-6z"
        fill="#FF9565" opacity="0.7"/>
  <path d="M52 88c44 6 92 6 138 0l-3 8c-42 6-88 6-132 0l-3-8z"
        fill="#FF8B59" opacity="0.75"/>

  <!-- rim -->
  <path d="M22 42c62 8 134 8 196 0 2-.4 4 1.6 2.8 3.3l-2.8 3.7c-64 9-132 9-196 0l-2.8-3.7C18 43.6 20 41.6 22 42z"
        fill="url(#rimGrad)"/>

  <!-- keel highlight -->
  <rect x="62" y="110" width="116" height="6" rx="3" fill="#FFE6DB" opacity="0.9"/>

  <!-- Oar shadow dot -->
  <ellipse cx="174" cy="116" rx="10" ry="8" fill="#D7B6A8" opacity="0.55"/>

  <!-- Oar shaft -->
  <path d="M82 42l76 76" stroke="url(#oarGrad)" stroke-width="6" stroke-linecap="round"/>

  <!-- Oar blade -->
  <path d="M160 98c10-4 25 6 28 16 1 4-1 8-4 9-10 4-25-6-28-16-1-4 1-8 4-9z"
        fill="#C2663C" stroke="#A14F2C" stroke-width="2"/>

  <!-- Oar collar -->
  <circle cx="155" cy="93" r="6" fill="#A14F2C"/>
</svg>
